<?xml version="1.0" standalone="no"?>
<!DOCTYPE svg PUBLIC "-//W3C//DTD SVG 20010904//EN"
 "http://www.w3.org/TR/2001/REC-SVG-20010904/DTD/svg10.dtd">
<svg version="1.0" xmlns="http://www.w3.org/2000/svg"
 width="360.000000pt" height="360.000000pt" viewBox="0 0 360.000000 360.000000"
 preserveAspectRatio="xMidYMid meet">

<g transform="translate(0.000000,360.000000) scale(0.100000,-0.100000)"
fill="#000000" stroke="none">
<path d="M1359 3127 c-39 -30 -39 -37 -39 -736 l0 -680 -314 -3 c-298 -3 -315
-4 -336 -23 -32 -29 -42 -62 -30 -99 7 -21 192 -213 563 -584 l552 -552 45 0
45 0 562 563 c604 604 583 579 549 646 -26 48 -44 51 -369 51 l-302 0 3 637
c2 351 0 662 -3 692 -5 37 -14 61 -30 77 l-24 24 -428 0 c-321 -1 -432 -4
-444 -13z"/>
</g>
</svg>
